<?xml version="1.0" encoding="UTF-8" standalone="no"?>
<!-- Created with Inkscape (http://www.inkscape.org/) -->

<svg
   width="1024"
   height="1024"
   viewBox="0 0 341.33333 341.33333"
   version="1.1"
   id="svg1"
   xml:space="preserve"
   inkscape:version="1.3.2 (091e20e, 2023-11-25, custom)"
   sodipodi:docname="logo.svg"
   inkscape:export-filename="internal\desktop\build\appicon.png"
   inkscape:export-xdpi="96"
   inkscape:export-ydpi="96"
   xmlns:inkscape="http://www.inkscape.org/namespaces/inkscape"
   xmlns:sodipodi="http://sodipodi.sourceforge.net/DTD/sodipodi-0.dtd"
   xmlns:xlink="http://www.w3.org/1999/xlink"
   xmlns="http://www.w3.org/2000/svg"
   xmlns:svg="http://www.w3.org/2000/svg"><sodipodi:namedview
     id="namedview1"
     pagecolor="#ffffff"
     bordercolor="#000000"
     borderopacity="0.25"
     inkscape:showpageshadow="2"
     inkscape:pageopacity="0.0"
     inkscape:pagecheckerboard="0"
     inkscape:deskcolor="#d1d1d1"
     inkscape:document-units="mm"
     inkscape:zoom="0.55370687"
     inkscape:cx="572.50509"
     inkscape:cy="492.13765"
     inkscape:window-width="2498"
     inkscape:window-height="1057"
     inkscape:window-x="-8"
     inkscape:window-y="-8"
     inkscape:window-maximized="1"
     inkscape:current-layer="layer1" /><defs
     id="defs1"><linearGradient
       id="linearGradient35"
       inkscape:collect="always"><stop
         style="stop-color:#0055bf;stop-opacity:1;"
         offset="0"
         id="stop34" /><stop
         style="stop-color:#0043a1;stop-opacity:1;"
         offset="1"
         id="stop35" /></linearGradient><linearGradient
       id="linearGradient33"
       inkscape:collect="always"><stop
         style="stop-color:#0055bf;stop-opacity:1;"
         offset="0"
         id="stop32" /><stop
         style="stop-color:#003783;stop-opacity:1;"
         offset="1"
         id="stop33" /></linearGradient><linearGradient
       id="linearGradient26"
       inkscape:collect="always"><stop
         style="stop-color:#002b6a;stop-opacity:1;"
         offset="0"
         id="stop27" /><stop
         style="stop-color:#004cae;stop-opacity:1;"
         offset="1"
         id="stop28" /></linearGradient><inkscape:path-effect
       effect="bspline"
       id="path-effect17"
       is_visible="true"
       lpeversion="1.3"
       weight="33.333333"
       steps="2"
       helper_size="0"
       apply_no_weight="true"
       apply_with_weight="true"
       only_selected="false"
       uniform="false" /><inkscape:path-effect
       effect="bspline"
       id="path-effect16"
       is_visible="true"
       lpeversion="1.3"
       weight="33.333333"
       steps="2"
       helper_size="0"
       apply_no_weight="true"
       apply_with_weight="true"
       only_selected="false"
       uniform="false" /><inkscape:path-effect
       effect="powerstroke"
       id="path-effect14"
       is_visible="true"
       lpeversion="1.3"
       scale_width="1"
       interpolator_type="CubicBezierJohan"
       interpolator_beta="0.2"
       start_linecap_type="zerowidth"
       end_linecap_type="zerowidth"
       offset_points="0,1"
       linejoin_type="extrp_arc"
       miter_limit="4"
       not_jump="false"
       sort_points="true"
       message="&lt;b&gt;Ctrl + clique&lt;/b&gt; no nó existente e mova-o" /><inkscape:path-effect
       effect="bspline"
       id="path-effect13"
       is_visible="true"
       lpeversion="1.3"
       weight="33.333333"
       steps="2"
       helper_size="0"
       apply_no_weight="true"
       apply_with_weight="true"
       only_selected="false"
       uniform="false" /><inkscape:path-effect
       effect="powerstroke"
       id="path-effect11"
       is_visible="true"
       lpeversion="1.3"
       scale_width="1"
       interpolator_type="CubicBezierJohan"
       interpolator_beta="0.2"
       start_linecap_type="zerowidth"
       end_linecap_type="zerowidth"
       offset_points="0,1"
       linejoin_type="extrp_arc"
       miter_limit="4"
       not_jump="false"
       sort_points="true"
       message="&lt;b&gt;Ctrl + clique&lt;/b&gt; no nó existente e mova-o" /><linearGradient
       id="linearGradient1"
       inkscape:collect="always"><stop
         style="stop-color:#005ac7;stop-opacity:1;"
         offset="0"
         id="stop1" /><stop
         style="stop-color:#004aaa;stop-opacity:1;"
         offset="1"
         id="stop2" /></linearGradient><linearGradient
       inkscape:collect="always"
       xlink:href="#linearGradient1"
       id="linearGradient3"
       gradientUnits="userSpaceOnUse"
       x1="51.967217"
       y1="170.66668"
       x2="289.36618"
       y2="170.66668"
       gradientTransform="translate(367.46097,-6.9283354)" /><inkscape:path-effect
       effect="fill_between_many"
       method="bsplinespiro"
       autoreverse="false"
       close="false"
       join="false"
       linkedpaths="#path11,0,1"
       id="path-effect12" /><inkscape:path-effect
       effect="fill_between_many"
       method="bsplinespiro"
       autoreverse="false"
       close="false"
       join="false"
       linkedpaths="#path12,0,1"
       id="path-effect15" /><linearGradient
       inkscape:collect="always"
       xlink:href="#linearGradient33"
       id="linearGradient17"
       gradientUnits="userSpaceOnUse"
       x1="51.967217"
       y1="170.66668"
       x2="289.36618"
       y2="170.66668"
       gradientTransform="matrix(0.89479143,0,-0.01359953,0.89479143,7.4838333,17.955597)" /><radialGradient
       inkscape:collect="always"
       xlink:href="#linearGradient26"
       id="radialGradient28"
       cx="142.61434"
       cy="130.20092"
       fx="142.61434"
       fy="130.20092"
       r="67.514044"
       gradientTransform="matrix(1,0,0.11806174,0.96082295,-33.28706,5.1008875)"
       gradientUnits="userSpaceOnUse" /><radialGradient
       inkscape:collect="always"
       xlink:href="#linearGradient35"
       id="radialGradient34"
       cx="256.19855"
       cy="154.11588"
       fx="256.19855"
       fy="154.11588"
       r="33.656876"
       gradientTransform="matrix(1,0,0.30582147,2.4888697,-62.108691,-229.45846)"
       gradientUnits="userSpaceOnUse" /></defs><g
     inkscape:groupmode="layer"
     id="layer2"
     inkscape:label="Camada 2"><rect
       style="opacity:1;fill:#f5f5f5;fill-opacity:1;stroke:#004db1;stroke-width:5.56998;stroke-linecap:round;stroke-linejoin:bevel;stroke-miterlimit:0;stroke-dasharray:none;stroke-opacity:0.497829;paint-order:markers fill stroke"
       id="rect1"
       width="312.80002"
       height="286.31189"
       x="14.266651"
       y="27.510721"
       inkscape:label="bg" /><path
       style="fill:url(#linearGradient3);fill-opacity:1;stroke-width:1.427"
       d="m 428.64163,281.02199 c -1.74768,-0.7705 -3.5355,-2.43781 -4.45287,-4.15276 l -0.83296,-1.55714 0.01,-86.46118 c 0.01,-93.644605 -0.0608,-90.331255 2.09287,-97.054596 4.44171,-13.866106 18.0316,-19.710475 34.05934,-14.647316 15.71958,4.965808 34.4767,20.804167 60.52115,51.103562 4.51048,5.24738 8.24846,9.68501 15.26555,18.12287 8.47599,10.19218 10.72303,12.91628 14.80241,17.94492 2.01667,2.48594 6.15496,7.57812 9.19623,11.31596 3.04126,3.73785 11.19022,13.84701 18.10879,22.46481 15.69175,19.54571 21.75412,26.89218 22.35533,27.09046 0.372,0.12272 0.48878,-17.11571 0.56634,-83.59968 l 0.0978,-83.754239 0.81278,-1.51024 c 1.04432,-1.940514 2.1707,-2.974442 4.28429,-3.932651 1.64644,-0.746428 2.3649,-0.770261 23.21991,-0.770261 20.01457,0 21.62662,0.04815 23.03116,0.687815 1.93017,0.879068 4.17876,3.368549 4.71373,5.218696 0.30001,1.037577 0.38523,31.421202 0.30535,108.85508 l -0.11088,107.41575 -1.01739,1.73059 c -1.41531,2.40746 -3.61462,4.27817 -6.01046,5.11246 -1.85574,0.64622 -3.3379,0.70815 -16.94719,0.70815 -12.88917,0 -15.36842,-0.0926 -18.26409,-0.68168 -16.19952,-3.2959 -29.99499,-12.99529 -45.71659,-32.14263 -6.71338,-8.17622 -19.71874,-25.28229 -31.75487,-41.76745 -11.96348,-16.38561 -40.32327,-54.77638 -47.81535,-64.7278 -3.3731,-4.48035 -4.47074,-5.68739 -5.25459,-5.77829 -1.23323,-0.14298 -2.0744,0.66809 -2.57967,2.48739 -0.26114,0.94027 -0.39037,23.6505 -0.39178,68.8488 l -0.003,67.44568 -1.05466,2.01886 c -0.65822,1.25999 -1.66381,2.44706 -2.67518,3.15799 l -1.62051,1.13913 -22.9045,0.0842 c -18.31571,0.0674 -23.13142,-0.0158 -24.03717,-0.41521 z m 153.81469,-93.35224 c -6.01674,-6.96525 -9.25356,-10.88725 -16.97679,-20.57045 -8.33917,-10.45549 -9.7513,-12.24491 -22.90917,-29.03018 C 532.51743,125.24477 527.53497,119.10517 521.59262,112.21947 502.57017,90.177228 488.287,77.674276 474.78605,71.24675 c -5.1194,-2.43724 -6.69629,-3.015602 -11.92882,-4.375117 -15.57198,-4.045947 -31.76357,-0.08733 -40.88922,9.996846 -1.14543,1.265718 -2.19373,2.301304 -2.32958,2.301304 -0.91472,0 1.32633,-7.165825 3.42424,-10.949223 4.68234,-8.444124 13.14081,-15.298206 23.51305,-19.053133 5.45956,-1.976456 10.27598,-2.854195 16.99019,-3.09628 10.51229,-0.379027 18.32135,1.25874 27.37308,5.740862 6.66924,3.302386 11.12887,6.582443 17.17898,12.635113 9.95185,9.95609 19.30038,23.721564 36.92188,54.366448 2.80607,4.87996 7.0575,12.27069 9.4476,16.42384 7.01958,12.19752 11.89667,20.82141 18.46973,32.65892 4.45028,8.01459 6.0028,10.7361 10.93937,19.17634 1.12835,1.92918 1.9903,3.69134 1.91544,3.91591 -0.0749,0.22456 -1.58489,-1.2689 -3.35567,-3.31883 z"
       id="path1-5"
       inkscape:label="N" /></g><g
     inkscape:label="Camada 1"
     inkscape:groupmode="layer"
     id="layer1"><g
       id="g35"
       transform="translate(11.601332,8.7539277e-5)"><path
         style="fill:url(#radialGradient28);stroke:none;stroke-width:1.27687"
         d="m 197.21339,192.0803 c -5.28901,-6.23245 -8.13195,-9.74182 -14.91094,-18.40626 -7.31963,-9.35548 -8.55886,-10.95664 -20.10413,-25.97596 C 153.37745,136.22296 149.00268,130.7293 143.77916,124.56804 127.0578,104.84482 114.44737,93.657288 102.45425,87.905993 97.9066,85.725172 96.503481,85.207658 91.839945,83.991176 77.96129,80.370897 63.41936,83.913036 55.116666,92.936268 c -1.042126,1.132554 -1.99422,2.059187 -2.115778,2.059187 -0.818483,0 1.284235,-6.411919 3.212882,-9.797271 4.30455,-7.55573 11.96633,-13.688703 21.298391,-17.04858 4.912053,-1.768516 9.233677,-2.553909 15.24478,-2.770525 9.411469,-0.33915 16.376669,1.12631 24.415129,5.136874 5.92266,2.954947 9.86849,5.889914 15.19977,11.305791 8.76944,8.908624 16.94721,21.225856 32.29802,48.646636 2.44448,4.36655 6.14812,10.97971 8.23028,14.69591 6.11517,10.91424 10.36187,18.63082 16.08241,29.22292 3.87307,7.17139 5.22525,9.60657 9.52767,17.15883 0.9834,1.72621 1.73069,3.30298 1.66066,3.50392 -0.0701,0.20094 -1.40089,-1.1354 -2.95749,-2.96966 z"
         id="path3"
         inkscape:label="accent" /><path
         id="path1"
         style="fill:url(#linearGradient17);fill-opacity:1;stroke-width:1.27687"
         d="m 262.66232,256.90234 c -8.9797,0.22054 -15.78238,-1.25918 -23.57378,-5.14648 -5.92266,-2.95495 -9.86852,-5.89013 -15.19978,-11.30599 -4.00204,-4.06556 -7.91134,-8.9324 -12.40493,-15.5293 -1.60817,-1.67504 -6.95122,-8.3035 -18.92547,-23.50651 -6.07349,-7.71112 -13.22785,-16.75631 -15.89831,-20.10091 -2.67046,-3.34459 -6.30423,-7.90125 -8.07492,-10.12565 -3.58181,-4.49959 -5.55542,-6.93743 -13.00104,-16.05729 -6.16408,-7.55013 -9.44857,-11.52084 -13.41315,-16.21615 C 119.27868,111.80244 102.71061,97.630857 88.712419,93.187499 74.439802,88.657033 62.200012,93.886355 58.037035,106.29362 c -2.018504,6.01597 -1.909831,3.05144 -3.1923,86.84375 l -1.185183,77.36458 0.724579,1.39323 c 0.797447,1.53435 2.374158,3.02661 3.927327,3.71615 h 6.51e-4 c 0.805745,0.35732 5.113591,0.43138 21.501327,0.37109 l 20.496004,-0.0749 1.46588,-1.01953 c 0.91463,-0.63613 1.83055,-1.69809 2.43666,-2.82552 l 0.97072,-1.80664 0.92044,-60.34961 c 0.61592,-40.44301 1.0405,-60.76413 1.28696,-61.60547 0.47685,-1.6279 1.24018,-2.35385 2.34172,-2.22591 0.70015,0.0813 1.66569,1.1616 4.62297,5.17057 6.56851,8.90443 31.42315,43.25627 41.90511,57.91797 10.54564,14.75076 21.94962,30.05704 27.8455,37.37305 13.80715,17.13286 26.01923,25.81193 40.46958,28.76106 2.583,0.52706 4.80031,0.61003 16.33342,0.61003 12.17746,0 13.50475,-0.0559 15.17403,-0.63412 2.15514,-0.74651 4.14857,-2.42004 5.44772,-4.57421 l 0.93338,-1.54883 z" /><path
         id="path32"
         style="opacity:1;fill:#003a88;fill-opacity:1;stroke:none;stroke-width:1.27687;stroke-opacity:0.87699"
         d="m 262.9712,237.88346 c -3.48536,-0.9504 -5.16878,-1.60136 -9.16466,-3.51758 -11.86706,-5.69085 -24.35293,-16.73484 -40.81342,-36.07356 -0.34278,17.48675 -0.60027,27.42819 -0.79998,27.36197 -0.07,-0.0232 -0.46745,-0.48182 -0.70931,-0.73372 4.49359,6.5969 8.40289,11.46374 12.40493,15.5293 5.33126,5.41586 9.27712,8.35104 15.19978,11.30599 7.7914,3.8873 14.59408,5.36702 23.57378,5.14648 z" /><path
         id="path31"
         style="fill:url(#radialGradient34);stroke-width:1.27687"
         d="m 240.48547,70.348307 c -18.66088,0 -19.30438,0.0209 -20.78776,0.688802 -1.90425,0.857396 -2.9258,1.782527 -3.88663,3.51888 l -0.74799,1.351562 -1.22626,74.942709 c -0.38649,23.61671 -0.61803,35.92963 -0.84371,47.44206 16.46049,19.33872 28.94636,30.38271 40.81342,36.07356 3.99588,1.91622 5.6793,2.56718 9.16466,3.51758 l 1.05263,-64.84765 c 1.12453,-69.28711 1.46174,-96.473933 1.20741,-97.402347 -0.45352,-1.655494 -2.4316,-3.883341 -4.14674,-4.669922 -1.24807,-0.57237 -2.69019,-0.615234 -20.59903,-0.615234 z" /></g></g></svg>
